<svg xmlns="http://www.w3.org/2000/svg" width="51.648" height="51.648" viewBox="0 0 51.648 51.648"><defs><style>.a{fill:#0a5e91;}</style></defs><path class="a" d="M19.368,20.982a3.228,3.228,0,0,0-3.228-3.228H14.526A6.455,6.455,0,0,0,8.07,24.21v4.842a6.455,6.455,0,0,0,6.456,6.456H16.14a3.228,3.228,0,0,0,3.228-3.228ZM37.122,35.508a6.455,6.455,0,0,0,6.456-6.456V24.21a6.455,6.455,0,0,0-6.456-6.456H35.508a3.228,3.228,0,0,0-3.228,3.228v11.3a3.228,3.228,0,0,0,3.228,3.228ZM25.824,0C11.417,0,.462,11.987,0,25.824v1.614a1.614,1.614,0,0,0,1.614,1.614H3.228a1.614,1.614,0,0,0,1.614-1.614V25.824a20.982,20.982,0,0,1,41.964,0h-.012c.008.245.012,16.717.012,16.717a4.265,4.265,0,0,1-4.265,4.265H32.28a4.842,4.842,0,0,0-4.842-4.842H24.21a4.842,4.842,0,1,0,0,9.684H42.541a9.107,9.107,0,0,0,9.107-9.107V25.824C51.186,11.987,40.231,0,25.824,0Z"/></svg>