<svg xmlns="http://www.w3.org/2000/svg" width="56.974" height="56.974" viewBox="0 0 56.974 56.974"><defs><style>.a{fill:#fff;}</style></defs><path class="a" d="M54.894,2.728,43.321.057A2.688,2.688,0,0,0,40.261,1.6L34.92,14.067a2.664,2.664,0,0,0,.768,3.116L42.431,22.7A41.24,41.24,0,0,1,22.713,42.419l-5.519-6.743a2.668,2.668,0,0,0-3.116-.768L1.615,40.25A2.7,2.7,0,0,0,.058,43.321L2.728,54.893a2.67,2.67,0,0,0,2.6,2.07A51.626,51.626,0,0,0,56.963,5.332,2.667,2.667,0,0,0,54.894,2.728Z" transform="translate(0.01 0.011)"/></svg>