<svg xmlns="http://www.w3.org/2000/svg" width="47.256" height="47.256" viewBox="0 0 47.256 47.256"><defs><style>.a{fill:#0a5e91;}</style></defs><path class="a" d="M9.6,20.674H2.215A2.215,2.215,0,0,0,0,22.89V45.041a2.215,2.215,0,0,0,2.215,2.215H9.6a2.215,2.215,0,0,0,2.215-2.215V22.89A2.215,2.215,0,0,0,9.6,20.674ZM5.907,43.564a2.215,2.215,0,1,1,2.215-2.215A2.215,2.215,0,0,1,5.907,43.564ZM35.442,7.518c0,3.915-2.4,6.111-3.071,8.726h9.389a5.515,5.515,0,0,1,5.5,5.362,6.683,6.683,0,0,1-1.794,4.541l-.01.01a7.71,7.71,0,0,1-.859,7.335,7.3,7.3,0,0,1-1.512,6.9,4.9,4.9,0,0,1-.567,4.119c-1.884,2.707-6.553,2.745-10.5,2.745H31.75c-4.457,0-8.1-1.624-11.035-2.928a14.525,14.525,0,0,0-4.86-1.493,1.108,1.108,0,0,1-1.088-1.107V22a1.106,1.106,0,0,1,.328-.786c3.656-3.613,5.228-7.438,8.225-10.44,1.366-1.369,1.863-3.437,2.344-5.436C26.075,3.627,26.934,0,28.8,0,31.012,0,35.442.738,35.442,7.518Z"/></svg>